<?xml version="1.0" standalone="no"?>
<!DOCTYPE svg PUBLIC "-//W3C//DTD SVG 20010904//EN"
 "http://www.w3.org/TR/2001/REC-SVG-20010904/DTD/svg10.dtd">
<svg version="1.0" xmlns="http://www.w3.org/2000/svg"
 width="343.000000pt" height="343.000000pt" viewBox="0 0 343.000000 343.000000"
 preserveAspectRatio="xMidYMid meet">
<metadata>
Created by potrace 1.14, written by Peter Selinger 2001-2017
</metadata>
<g transform="translate(0.000000,343.000000) scale(0.100000,-0.100000)"
fill="#000000" stroke="none">
<path d="M490 3414 c-228 -49 -417 -232 -475 -459 -13 -51 -15 -218 -15 -1243
0 -1321 -4 -1238 71 -1382 73 -140 190 -243 339 -298 l75 -27 1204 -3 c1052
-2 1212 0 1265 13 205 51 375 209 444 410 l27 80 0 1210 0 1210 -27 73 c-60
166 -169 292 -310 362 -149 73 -89 70 -1378 69 -952 0 -1166 -3 -1220 -15z
m832 -568 c82 -15 205 -52 213 -65 2 -4 -3 -60 -12 -124 -16 -111 -18 -117
-40 -117 -22 0 -23 3 -23 75 l0 74 -45 27 c-87 50 -144 67 -256 72 -122 5
-186 -6 -274 -48 -116 -55 -207 -174 -240 -311 -19 -83 -19 -248 0 -324 23
-88 78 -194 130 -248 105 -109 219 -157 385 -165 117 -5 191 6 277 40 l58 23
-3 71 c-5 84 9 118 65 161 51 40 70 45 108 33 33 -11 55 -44 55 -82 0 -39 -41
-108 -86 -146 -24 -20 -44 -41 -44 -47 0 -16 83 -135 135 -193 40 -45 50 -51
63 -40 38 32 55 127 29 162 -8 10 -30 21 -51 25 -32 5 -35 8 -24 21 12 14 65
15 468 10 l455 -5 57 -28 c91 -45 147 -147 135 -249 -8 -64 -37 -127 -83 -177
-56 -63 -103 -86 -252 -127 -7 -2 60 -101 160 -236 236 -320 233 -317 285
-331 31 -8 43 -16 43 -29 0 -17 -9 -18 -117 -16 l-118 3 -97 135 c-174 240
-244 334 -307 408 -33 41 -61 79 -61 85 0 8 26 12 78 13 106 1 174 25 232 83
56 56 74 111 68 209 -4 80 -29 125 -90 165 -71 46 -232 59 -326 26 l-30 -10
-7 -102 c-4 -56 -5 -287 -3 -513 4 -478 -3 -447 104 -459 54 -6 64 -10 64 -26
0 -18 -10 -19 -245 -19 -235 0 -245 1 -245 19 0 16 10 20 65 26 109 12 100
-38 103 524 2 329 -1 504 -8 531 -12 44 -14 45 -121 55 l-66 5 -5 -55 c-4 -42
-13 -67 -36 -101 -18 -24 -32 -49 -32 -53 0 -5 21 -20 48 -33 34 -17 64 -23
110 -23 l64 0 -39 -32 c-30 -26 -47 -33 -81 -33 -41 0 -109 27 -143 56 -14 13
-23 10 -74 -21 -52 -31 -67 -35 -128 -35 -81 0 -129 22 -166 76 -31 44 -38
117 -18 167 9 20 12 37 7 37 -5 0 -39 -7 -77 -16 -69 -17 -282 -24 -338 -13
-48 10 -116 30 -134 38 -133 66 -188 106 -251 182 -101 121 -148 273 -137 444
19 295 211 510 507 570 86 17 266 18 362 1z m564 -141 c187 -53 392 -182 506
-319 101 -120 184 -272 213 -389 l7 -27 -61 0 c-38 0 -61 4 -61 11 0 6 -15 47
-34 90 -85 196 -246 364 -443 463 -72 36 -199 76 -240 76 -20 0 -23 5 -23 44
0 87 4 88 136 51z m-1136 -1289 c0 -7 12 -41 26 -77 79 -193 228 -363 407
-463 153 -86 363 -128 531 -108 52 7 101 15 110 18 12 5 16 0 16 -19 0 -17 -7
-28 -21 -32 -12 -4 -42 -25 -65 -47 l-44 -41 -138 6 c-109 4 -155 10 -227 31
-343 103 -611 371 -709 710 -14 48 -26 92 -26 96 0 4 32 -8 70 -27 39 -19 70
-40 70 -47z"/>
<path d="M1567 1962 c-20 -22 -23 -102 -6 -150 9 -27 14 -30 30 -22 52 28 85
122 59 171 -14 25 -61 25 -83 1z"/>
<path d="M1486 1672 c-107 -112 14 -308 163 -264 20 6 45 18 55 25 18 13 16
18 -43 88 -34 41 -77 97 -94 126 -18 29 -37 53 -43 53 -5 0 -23 -13 -38 -28z"/>
</g>
</svg>
