<svg xmlns="http://www.w3.org/2000/svg" fill="none" viewBox="0 0 119 107"><path fill="#C4C4C4" fill-rule="evenodd" d="M60.432 5.89c19.467 2.463 35.31 16.663 40.227 35.302a49.138 49.138 0 0 0-5.618-.312h-.38c-4.806-15.385-18.155-27.01-34.447-29.274.111-1.78.2-3.788.218-5.717ZM52.2 49.47c1.172-.832 2.132-1.799 2.887-2.914.756-1.107 1.131-2.18 1.131-3.189 0-.702-.218-1.343-.653-1.943-.436-.585-1.01-.888-1.701-.888-.728 0-1.367.312-1.938.92-.556.605-.839 1.516-.839 2.73 0 1.38.371 3.15 1.103 5.293l.01-.009Zm-2.021 3.742c-.992.465-2.596 1.673-3.06 2.728-.463 1.05-.773 2.083-.773 3.17 0 1.962.718 3.7 2.132 5.243 1.414 1.544 3.124 2.32 5.136 2.32 1.83 0 3.624-.674 5.362-1.999-2.651-2.812-4.551-5.02-5.692-6.61a51.91 51.91 0 0 1-3.105-4.857v.005Zm-42.93 8.631a39.052 39.052 0 0 0 6.591 3.352c5.071 17.677 21.317 30.617 40.548 30.617 3.633 0 7.156-.465 10.526-1.334l-.019 2.454c-.894.274-1.738.674-2.512 1.167l-.31.218a10.56 10.56 0 0 0-2.879 2.952c-1.576.163-3.18.246-4.806.246-23.574 0-43.194-17.147-47.139-39.667v-.005Zm36.65-5.907c-3.926 1.24-8.014 1.854-12.265 1.854-9.377 0-16.992-2.668-22.855-8.008C2.925 44.44 0 37.464 0 28.837c0-5.936 1.465-11.132 4.38-15.576 2.925-4.439 6.776-7.762 11.574-9.96C20.75 1.096 26.132 0 32.107 0 35.56 0 38.98.367 42.35 1.097c3.38.73 6.202 1.599 8.46 2.612l.273.39c-.593 1.47-1.164 5.076-1.683 10.83l-.273.312h-1.831l-.31-.311-.385-6.647c-1.896-1.515-4.19-2.691-6.874-3.533a27.749 27.749 0 0 0-8.403-1.278c-4.39 0-8.33.948-11.801 2.84-3.486 1.883-6.183 4.62-8.111 8.2-1.915 3.588-2.879 7.98-2.879 13.149 0 5.169 1.131 9.78 3.388 13.717 2.258 3.927 5.345 6.949 9.252 9.059 3.907 2.11 8.477 3.17 13.696 3.17a32.45 32.45 0 0 0 6.666-.674c2.122-.437 3.898-.986 5.316-1.636.7-.32 1.386-.683 2.058-1.07-.593-1.663-.895-3.197-.895-4.6 0-.684.093-1.335.283-1.962.2-.623.417-1.107.663-1.45.236-.34.663-.777 1.256-1.298a94.18 94.18 0 0 1 1.729-1.478c.556-.464 1.084-.785 1.594-.985a4.56 4.56 0 0 1 1.632-.284c1.312 0 2.294.368 2.957 1.116.663.758.992 1.724.992 2.905 0 2.993-2.067 5.89-6.211 8.72.895 1.808 2.248 3.853 4.06 6.126 1.803 2.273 3.398 3.947 4.788 5.03 1.456-1.59 2.17-3.343 2.17-5.244 0-.757-.084-1.399-.265-1.92-.18-.53-.408-.887-.69-1.059-.292-.181-.793-.274-1.52-.274-.765-.01-1.53-.028-2.286-.038l-.19-.283 1.386-2.036c.84.135 2.058.21 3.634.21.848 0 13.474.366 15.143.366 2.938 0 6.892-.083 11.884-.274 1.84-.046 3.18-.074 4.014-.074 6.572 0 11.027 1.204 13.358 3.597 2.341 2.394 3.513 5.234 3.513 8.53 0 2.175-.574 4.327-1.719 6.438-1.14 2.11-2.832 3.909-5.062 5.405-2.238 1.497-5.316 2.622-9.233 3.38.728 1.013 2.04 2.774 3.926 5.275l5.534 7.349a993.397 993.397 0 0 0 5.771 7.688c2.058 2.686 3.379 4.211 3.977 4.564.602.349 1.112.567 1.539.642.435.074 1.112.121 2.048.121l.311.311v1.845l-.348.34c-1.246-.154-2.73-.237-4.445-.237-1.84 0-3.851.083-6.034.237-1.794-2.19-4.617-5.983-8.46-11.37-4.463-6.256-9.033-12.052-13.72-17.393l.395-1.213c1.349.074 2.396.12 3.152.12 4.496 0 8.014-1.087 10.554-3.248 2.549-2.148 3.824-5.15 3.824-8.985 0-3.435-1.141-6.038-3.426-7.8-2.294-1.752-5.381-2.63-9.28-2.63-2.73 0-5.297.38-7.712 1.124-.385.577-.584 5.462-.584 14.656v18.09l.037 7.623c.028 2.942.102 4.848.237 5.699.134.86.32 1.45.565 1.734.246.274.719.52 1.428.711.7.2 2.428.348 5.172.455l.32.237v1.953l-.32.311c-.12 0-2.405-.074-6.855-.228-1.84-.056-3.286-.083-4.324-.083-.802 0-4.524.102-11.138.311l-.31-.311v-1.953l.31-.237c2.405-.102 4.023-.237 4.825-.39.811-.163 1.349-.358 1.622-.604.274-.256.491-.777.663-1.59.171-.804.264-2.603.292-5.387l.037-8.246v-18.09l-.074-7.623c-.028-2.966-.102-4.886-.227-5.736-.102-.86-.292-1.441-.538-1.725-.246-.283-.718-.52-1.418-.702-.71-.19-6.81-.437-6.79-.33.12.512.19 1.05.19 1.609 0 2.519-1.192 4.978-3.57 7.395 2.605 1.864 5.164 2.803 7.685 2.803.367 0 .691-.047.964-.144.274-.084.71-.303 1.303-.623l.255.125.153.665-.065.302a55.965 55.965 0 0 0-3.588 2.766 6.814 6.814 0 0 1-1.492.153 9.726 9.726 0 0 1-3.824-.795c-1.284-.53-2.642-1.38-4.079-2.566-1.877 1.39-3.462 2.31-4.746 2.738-1.275.437-2.642.646-4.097.646-2.888 0-5.1-.869-6.629-2.603-1.538-1.733-2.303-3.718-2.303-5.963 0-1.683.435-3.24 1.311-4.648Z" clip-rule="evenodd"/></svg>